<?xml version="1.0" standalone="no"?>
<!DOCTYPE svg PUBLIC "-//W3C//DTD SVG 20010904//EN"
 "http://www.w3.org/TR/2001/REC-SVG-20010904/DTD/svg10.dtd">
<svg version="1.0" xmlns="http://www.w3.org/2000/svg"
 width="500.000000pt" height="500.000000pt" viewBox="0 0 500.000000 500.000000"
 preserveAspectRatio="xMidYMid meet">
<metadata>
Created by potrace 1.14, written by Peter Selinger 2001-2017
</metadata>
<g transform="translate(0.000000,500.000000) scale(0.100000,-0.100000)"
fill="#000000" stroke="none">
<path d="M435 4990 c-200 -41 -367 -200 -421 -404 -12 -42 -13 -392 -11 -2106
l2 -2055 21 -55 c71 -182 206 -306 385 -354 46 -13 339 -15 2084 -15 1996 -1
2032 -1 2102 19 192 53 330 191 383 382 19 70 20 110 19 2092 0 1776 -2 2029
-15 2085 -43 181 -163 317 -341 389 l-68 27 -2050 1 c-1127 1 -2068 -2 -2090
-6z"/>
</g>
</svg>
